<svg viewBox="0 0 24 24" fill="#ffffff" class="w-5 h-5" xmlns="http://www.w3.org/2000/svg"><path d="M12.04 2C6.58 2 2.13 6.45 2.13 11.91c0 2.1.55 4.14 1.6 5.95L2 22l4.27-1.12a9.9 9.9 0 0 0 5.77 1.84h.01c5.46 0 9.9-4.45 9.9-9.91 0-2.65-1.03-5.13-2.9-7A9.82 9.82 0 0 0 12.04 2zm5.74 14.2c-.24.68-1.4 1.3-1.95 1.38-.5.07-1.12.1-1.81-.11-.42-.13-.96-.31-1.65-.6-2.9-1.25-4.8-4.18-4.94-4.37-.14-.19-1.18-1.57-1.18-2.99s.74-2.12 1-2.41c.27-.29.58-.36.78-.36.2 0 .4 0 .57.01.18.01.43-.07.67.51.24.58.83 2 .9 2.15.07.14.12.31.02.5-.1.19-.14.31-.28.48-.14.17-.3.37-.43.5-.14.14-.29.3-.12.58.17.29.75 1.24 1.61 2 1.11.99 2.05 1.3 2.34 1.44.29.14.46.12.63-.07.17-.19.73-.85.93-1.14.2-.29.4-.24.67-.14.27.1 1.7.8 1.99.95.29.14.48.22.55.34.07.12.07.69-.17 1.36z"></path></svg>
